# xmcd
#
# Track frame offsets:
#	150
#	8385
#	16742
#	28835
#	40440
#	53566
#	64855
#	75714
#	85406
#	94856
#	103399
#	112130
#	121867
#	130885
#	141074
#	151742
#	161680
#	172504
#	180066
#	189785
#	202456
#	212357
#	224901
#	232951
#	244545
#	252547
#	263166
#	270906
#	281006
#	293561
#	303676
#	316405
#	328591
#	339568
#
# Disc length: 4675 seconds
#
# Revision: 0
# Processed by: cddbd v1.5.2PL0 Copyright (c) Steve Scherf et al.
# Submitted via: EasyCDDAExtractor 11.9.9.666
#
DISCID=dc124122
DTITLE=Johnny Cash - Original Sun Sound Of Johnny Cash - All Aboard The Blue T
DTITLE=rain
DYEAR=1900
DGENRE=
TTITLE0=Always Alone
TTITLE1=Country Boy
TTITLE2=Goodnight Irene
TTITLE3=Wide Open Road
TTITLE4=Thanks A Lot
TTITLE5=Big River
TTITLE6=Belshazah
TTITLE7=Born To Loose
TTITLE8=New Mexico
TTITLE9=I Forgot To Remember To Forget
TTITLE10=Two Timin' Woman
TTITLE11=The Story Of A Broken Heart
TTITLE12=Blue Train
TTITLE13=There You Go
TTITLE14=Train Of Love
TTITLE15=Goodbye, Little Darlin'
TTITLE16=I Heard That Lonesome Whistle
TTITLE17=Come In Stranger
TTITLE18=Rock Island Line
TTITLE19=Give My Love To Rose
TTITLE20=Hey! Porter
TTITLE21=Folsom Prison Blues
TTITLE22=The Wreck Of The Old '97
TTITLE23=So Doggone Lonesome
TTITLE24=I Can't Help It (If I'm Still In Love With You)
TTITLE25=You Win Again
TTITLE26=Hey, Good Lookin'
TTITLE27=I Could Never Be Ashamed Of You
TTITLE28=Next In Line
TTITLE29=Straight A's In Love
TTITLE30=Folsom Prison Blues
TTITLE31=I Walk The Line
TTITLE32=I Love You Because
TTITLE33=Mean Eyed Cat
EXTD=
EXTT0=
EXTT1=
EXTT2=
EXTT3=
EXTT4=
EXTT5=
EXTT6=
EXTT7=
EXTT8=
EXTT9=
EXTT10=
EXTT11=
EXTT12=
EXTT13=
EXTT14=
EXTT15=
EXTT16=
EXTT17=
EXTT18=
EXTT19=
EXTT20=
EXTT21=
EXTT22=
EXTT23=
EXTT24=
EXTT25=
EXTT26=
EXTT27=
EXTT28=
EXTT29=
EXTT30=
EXTT31=
EXTT32=
EXTT33=
PLAYORDER=
